<?xml version="1.0" encoding="UTF-8" standalone="no"?>
<!-- Created with Inkscape (http://www.inkscape.org/) -->

<svg
   width="111.5496mm"
   height="30.861996mm"
   viewBox="0 0 111.5496 30.861996"
   version="1.1"
   id="svg1"
   sodipodi:docname="text458.svg"
   inkscape:version="1.4 (86a8ad7, 2024-10-11)"
   xmlns:inkscape="http://www.inkscape.org/namespaces/inkscape"
   xmlns:sodipodi="http://sodipodi.sourceforge.net/DTD/sodipodi-0.dtd"
   xmlns="http://www.w3.org/2000/svg"
   xmlns:svg="http://www.w3.org/2000/svg">
  <sodipodi:namedview
     id="namedview1"
     pagecolor="#ffffff"
     bordercolor="#000000"
     borderopacity="0.25"
     inkscape:showpageshadow="2"
     inkscape:pageopacity="0.0"
     inkscape:pagecheckerboard="0"
     inkscape:deskcolor="#d1d1d1"
     inkscape:document-units="mm"
     inkscape:zoom="2.106238"
     inkscape:cx="188.25033"
     inkscape:cy="70.030074"
     inkscape:window-width="1920"
     inkscape:window-height="1009"
     inkscape:window-x="-8"
     inkscape:window-y="-8"
     inkscape:window-maximized="1"
     inkscape:current-layer="g6" />
  <defs
     id="defs1">
    <rect
       x="305.4324"
       y="488.57812"
       width="331.28406"
       height="125.15911"
       id="rect458" />
    <rect
       x="256.60153"
       y="266.17621"
       width="490.22382"
       height="84.257217"
       id="rect447" />
    <linearGradient
       id="swatch437">
      <stop
         style="stop-color:#df2a87;stop-opacity:1;"
         offset="0"
         id="stop437" />
    </linearGradient>
  </defs>
  <g
     id="layer1"
     transform="translate(-15.185696,-119.30403)">
    <g
       id="g6"
       transform="translate(-1.0409453,-4.2676906)">
      <g
         id="g445"
         transform="matrix(0.15153962,-0.15414355,0.17734081,0.18813627,79.786249,103.7503)">
        <path
           style="fill:#8a0c3a;fill-opacity:1;fill-rule:evenodd;stroke:#1a1a1a;stroke-width:1.08807;stroke-dasharray:none"
           d="m 68.40371,198.45408 -39.905324,-61.13591 -69.285513,-1.33846 -31.047989,59.76523 z"
           id="path436" />
        <path
           style="fill:#dfc387;fill-opacity:1;fill-rule:evenodd;stroke:#1a1a1a;stroke-width:1.08807;stroke-dasharray:none;stroke-opacity:1"
           d="m -60.149644,166.937 108.600687,0.94912 -19.952657,-30.56795 -69.285513,-1.33846 z"
           id="path437" />
        <path
           style="fill:#8a0c3a;fill-opacity:1;fill-rule:evenodd;stroke:#000000;stroke-width:1.08807;stroke-dasharray:none;stroke-opacity:1"
           d="m -60.149644,166.937 54.300339,0.47457 -4.1335113,-29.68788 -38.4811667,0.40504 z"
           id="path438" />
        <path
           style="fill:#dfc387;fill-opacity:1;fill-rule:evenodd;stroke:#000000;stroke-width:1.08807;stroke-dasharray:none;stroke-opacity:1"
           d="m -60.149644,166.937 54.300339,0.47457 4.133658,29.68793 -70.119469,-1.35456 z"
           id="path439" />
        <path
           id="path440"
           style="fill:#705548;fill-opacity:1;fill-rule:evenodd;stroke:#000000;stroke-width:1.08807;stroke-dasharray:none;stroke-opacity:1"
           d="m -52.767447,135.35824 -28.02755,61.98086 3.69528,8.05399 7.798416,0.16434 -2.534009,-9.81272 23.371333,-57.61543 76.962322,-0.81121 39.07063,61.39677 -2.7099,9.40602 7.602123,-0.26454 4.952394,-10.54659 -43.777156,-63.60123 z" />
        <path
           style="fill:#000000;fill-opacity:1;fill-rule:evenodd;stroke:#000000;stroke-width:1.08807;stroke-dasharray:none;stroke-opacity:0"
           d="m -48.549127,150.92101 87.023836,1.68113"
           id="path441" />
      </g>
      <path
         d="m 291.72616,313.55608 q -0.83551,-1.53732 -2.50651,-2.77387 -1.67101,-1.23655 -3.77648,-1.97179 -2.07205,-0.76866 -4.34462,-1.13629 -6.75088,-1.0026 -12.59941,-4.37804 -0.5013,-0.26736 -1.06944,-1.13628 -0.56815,-0.86893 -0.56815,-1.67101 0,-2.94098 0.96919,-5.88195 1.0026,-2.9744 2.53993,-4.64541 2.47309,-2.77387 8.88977,-4.84592 6.45009,-2.07205 14.50435,-2.07205 4.8125,0 7.41928,0.73524 2.64019,0.73525 2.64019,2.27257 0,2.50652 -0.70182,3.87674 -0.66841,1.37023 -1.47049,1.83811 -0.76867,0.43447 -2.74045,1.20313 -2.10548,0.73524 -3.67622,1.53733 -1.53733,0.80208 -2.6402,1.53732 -1.10286,0.73525 -1.37022,0.73525 -0.33421,0 -0.33421,-0.26736 0,-0.56815 1.16971,-1.70443 1.20313,-1.16971 2.94098,-2.03863 1.8381,-0.96919 1.8381,-1.23655 0,-0.43446 -2.03863,-0.43446 -6.18273,0 -11.42969,1.10287 -5.24697,1.10286 -8.2882,2.90755 -3.00782,1.80469 -3.00782,3.67622 0,1.1697 1.23655,1.67101 1.26996,0.46788 5.54774,1.60417 4.27779,1.13628 7.65322,2.60677 4.84593,2.07205 7.18534,4.3112 2.33941,2.23915 2.33941,5.01303 0,1.90494 -0.93576,3.84331 -0.90235,1.90495 -2.67362,3.50912 -1.77127,1.60417 -4.07726,2.6402 -1.97179,0.8355 -4.9796,1.57074 -2.9744,0.73525 -6.48352,1.13629 -3.47569,0.43446 -6.65061,0.43446 -5.84853,0 -9.42449,-1.10286 -3.54253,-1.10287 -3.54253,-3.34202 0,-1.00261 1.20312,-3.10808 1.20313,-2.13889 2.84072,-2.87413 1.43706,-0.56814 2.77387,-0.63498 1.33681,-0.10026 1.33681,0.30078 0,0.10026 -0.10026,0.20052 -0.10026,0.10026 -0.23394,0.1671 -0.13369,0.0668 -0.26737,0.13368 -0.6684,0.26736 -1.10286,0.43446 -0.40104,0.13368 -0.66841,0.30078 -0.23394,0.13368 -0.23394,0.40105 0,0.70182 6.91798,0.70182 6.01563,0 9.85895,-0.43446 3.84332,-0.43447 6.78429,-1.57075 2.94098,-1.13629 5.34723,-3.1415 z m 34.62329,-0.86892 v 2.10547 q -2.90755,2.97439 -5.04644,4.87934 -2.10547,1.87153 -3.70964,2.84072 -1.57075,0.96918 -2.67361,0.96918 -2.60678,0 -2.60678,-3.07465 0,-2.4731 1.60417,-5.71485 1.63759,-3.27518 4.67882,-7.68664 -1.5039,0.8355 -2.84071,1.93837 -1.33681,1.06945 -2.37283,2.27257 -1.03603,1.16971 -1.73785,2.00521 -2.17231,2.43967 -4.17752,5.01303 -2.00521,2.53993 -2.70704,3.30859 -0.70182,0.76867 -1.3368,0.76867 -2.60678,0 -2.60678,-6.41668 0,-2.10547 0.63499,-4.6454 0.63498,-2.53993 3.40885,-6.71745 5.84853,-8.75609 9.99263,-14.30383 4.17753,-5.58117 6.91798,-8.42189 2.74045,-2.87413 3.67622,-2.80729 1.1697,0.10026 1.87153,0.46788 0.73524,0.36762 0.73524,0.83551 0,0.8355 -1.1697,2.77387 -1.13629,1.90495 -3.94358,5.98221 -3.04124,4.3112 -4.31121,6.08247 -1.26996,1.73785 -3.8099,4.97961 -2.50651,3.20833 -4.61198,5.74826 -2.07205,2.50652 -4.74566,5.44749 v 4.01042 q 4.4783,-4.9796 7.75348,-8.15452 3.27517,-3.17492 5.54774,-4.77908 2.27258,-1.63759 3.34202,-1.63759 1.00261,0 1.87153,1.20312 0.86893,1.16971 0.86893,1.93837 0,0.33421 -0.33421,0.83551 -2.40625,2.87413 -3.84332,4.77908 -1.40364,1.87153 -2.17231,3.37544 -0.76866,1.47049 -0.76866,2.53993 0,1.57075 1.50391,1.57075 1.60416,0 7.11849,-4.3112 z m 5.34723,1.20312 v 0.83551 q 0,1.97179 0.96918,3.07465 0.96919,1.10287 2.53993,1.10287 1.63759,0 3.37544,-0.76866 1.77127,-0.76867 3.50912,-2.03863 1.73785,-1.26997 4.24436,-3.40886 v 2.03863 q -3.77648,4.54514 -7.08507,6.98481 -3.3086,2.40626 -6.71746,2.40626 -2.97439,0 -4.71224,-2.306 -1.73785,-2.30599 -1.73785,-6.31641 0,-3.50911 1.63759,-6.34983 1.63759,-2.87413 5.34722,-6.04905 2.53994,-2.17231 5.04645,-3.27518 2.50651,-1.10286 4.4783,-1.10286 1.57075,0 2.47309,0.73524 0.93577,0.70183 0.93577,2.13889 0,2.10547 -1.57075,4.21094 -1.57075,2.07205 -4.8125,4.1441 -3.20834,2.03864 -7.92058,3.94358 z m 0.3342,-2.17231 q 3.00781,-1.1697 5.1467,-2.90755 2.1389,-1.73785 3.1415,-3.3086 1.03603,-1.60417 1.03603,-2.33941 0,-0.76866 -0.70183,-0.76866 -0.60156,0 -1.97179,0.76866 -1.3368,0.76866 -2.74045,2.00521 -1.37023,1.23655 -2.47309,2.90756 -1.10287,1.671 -1.43707,3.64279 z m 13.00044,3.77648 v -2.33941 q 4.67883,-5.07986 8.05427,-9.55817 3.40885,-4.4783 5.38064,-7.11849 1.97179,-2.6402 3.4757,-3.70964 1.50391,-1.10287 3.77648,-1.10287 1.13628,0 1.13628,0.86893 0,0.70182 -0.93576,2.07205 -0.90234,1.37022 -2.33941,2.80729 -1.90495,1.87153 -3.74306,4.71225 -1.80469,2.80729 -4.11068,7.18533 1.80469,-1.40365 4.1441,-3.30859 2.37283,-1.93837 3.84332,-3.00782 1.50391,-1.10287 2.94097,-1.73785 1.47049,-0.63498 2.94098,-0.63498 0.93576,0 1.20312,0.3342 0.30079,0.3342 0.30079,1.30339 0,2.53993 -1.23655,4.9796 -1.23655,2.40625 -3.54254,5.01303 -2.30599,2.60677 -5.68143,5.68142 1.16971,0.43447 2.40626,0.43447 3.87673,0 10.39367,-5.91537 v 2.40625 q -2.53994,2.27257 -4.97961,4.27778 -2.40625,2.00521 -4.54514,3.20834 -2.13889,1.20312 -3.94358,1.20312 -0.6684,0 -1.43707,-0.1671 -0.73524,-0.13368 -1.37022,-0.3342 -0.63499,-0.23394 -1.63759,-0.63498 -1.00261,-0.40104 -1.53733,-0.56815 -1.06945,0.26737 -1.20313,0.26737 -1.1697,0 -2.74045,-0.93577 -1.10287,2.13889 -2.43967,5.51433 -1.30339,3.40886 -2.20573,5.41407 -0.90235,2.00521 -2.40626,3.84332 -0.8355,0.8355 -1.1697,0.8355 -1.43707,0 -1.43707,-2.53993 0,-2.20573 0.90235,-4.61199 0.86892,-2.37283 2.17231,-4.51172 1.26996,-2.13889 2.80729,-4.3112 1.53733,-2.20573 2.17231,-3.27518 5.28039,-9.09028 8.22136,-15.47353 -7.68664,9.35764 -11.63022,13.4349 z m 13.56859,1.63759 q 3.3086,-3.4757 4.91277,-5.91537 1.63759,-2.43967 1.63759,-3.74306 0,-1.23654 -1.23655,-1.23654 -1.67101,0 -4.71224,2.77387 -3.00782,2.74045 -6.21616,7.41928 2.4731,-0.26736 3.3086,-0.1671 0.83551,0.0668 2.30599,0.86892 z m 28.30689,-19.3837 q -0.83551,0 -1.60417,-0.63498 -0.73524,-0.63498 -0.73524,-1.60417 0,-1.47049 1.40364,-3.27517 1.40365,-1.80469 2.90756,-1.80469 1.0026,0 1.67101,0.63498 0.6684,0.60156 0.6684,1.77127 0,1.43707 -1.37023,3.17491 -1.37022,1.73785 -2.94097,1.73785 z m 2.27257,14.93882 v 2.43967 q -3.24176,4.17752 -6.04905,6.31641 -2.80729,2.10547 -4.77908,2.10547 -2.74046,0 -4.07726,-2.87413 -1.33681,-2.87414 -1.33681,-6.28299 0,-1.30339 0.26736,-2.4731 0.26736,-1.20312 0.63498,-1.97179 0.36763,-0.76866 1.37023,-2.40625 4.74566,-7.38585 8.68924,-7.38585 2.03863,0 2.03863,1.57074 0,1.06945 -1.3368,3.34202 -1.30339,2.27257 -2.33941,3.24176 -2.90756,2.80729 -3.8099,3.91016 -0.86893,1.10286 -0.86893,2.50651 0,1.20312 0.90235,2.00521 0.90234,0.80208 2.33941,0.80208 1.57075,0 3.44228,-1.13628 1.90495,-1.16971 4.91276,-3.70964 z"
         id="text447"
         style="font-style:italic;font-size:68.4445px;font-family:'Brush Script MT';-inkscape-font-specification:'Brush Script MT Italic';white-space:pre;fill:#dfc387;fill-rule:evenodd;stroke-width:3.77953"
         transform="matrix(0.28863611,0,0,0.28863611,-58.030761,50.60497)"
         aria-label="Shepi" />
      <path
         d="m 351.44208,539.17196 v 2.36979 q -6.125,6.81771 -11.26563,11.22917 -5.10417,4.44792 -9.98959,6.81771 -4.88542,2.40625 -9.44271,2.40625 -3.9375,0 -6.78126,-1.56771 -2.80729,-1.5677 -4.26562,-4.59375 -1.42188,-2.98958 -1.42188,-7.10938 0,-3.24479 1.02084,-6.85417 1.05729,-3.64583 3.02604,-7.32812 1.96875,-3.71876 4.8125,-7.65626 2.88021,-3.9375 6.7448,-8.27604 4.01041,-4.48438 7.91146,-7.72917 3.90104,-3.28126 7.07292,-5.14063 3.17187,-1.85938 5.86979,-2.77084 2.73438,-0.91145 4.52084,-0.91145 1.82292,0 3.09896,0.875 1.27604,0.875 1.96875,2.55208 0.69271,1.67708 0.69271,3.86459 0,4.11979 -2.8073,9.1875 -2.80729,5.03125 -7,9.73438 -4.19271,4.70313 -8.02084,7.69271 -3.79166,2.95313 -5.46875,2.95313 -1.13021,0 -2.11458,-0.875 -0.94792,-0.91146 -0.94792,-2.04167 0,-2.07813 2.1875,-5.03125 2.22396,-2.95313 4.8125,-5.39584 2.625,-2.47917 3.13542,-2.47917 0.25521,0 0.25521,0.21875 0,0.32813 -0.40104,1.13021 -0.36459,0.80209 -0.36459,0.98438 0,0.29166 0.21875,0.29166 0.6198,0 3.57292,-3.31771 2.95313,-3.31771 5.39584,-7.29167 2.47917,-4.01041 2.47917,-6.5625 0,-1.05729 -0.47396,-1.60417 -0.4375,-0.58333 -1.34896,-0.58333 -2.55209,0 -7.76563,4.15625 -5.17709,4.1198 -10.64584,10.53647 -5.43229,6.38021 -9.07813,13.19792 -3.64583,6.81771 -3.64583,11.9948 0,2.98958 0.875,4.99479 0.91146,2.00521 2.625,3.09896 1.75,1.09375 4.19271,1.09375 5.28646,0 11.9948,-4.11979 6.70833,-4.1198 14.76563,-12.14063 z m 26.94272,0.14583 v 2.29688 q -3.17188,3.24479 -5.50521,5.32291 -2.29688,2.04167 -4.04688,3.09896 -1.71354,1.0573 -2.91667,1.0573 -2.84375,0 -2.84375,-3.35417 0,-2.69792 1.75,-6.23438 1.78646,-3.57292 5.10417,-8.38542 -1.64062,0.91146 -3.09896,2.11458 -1.45833,1.16667 -2.58854,2.47917 -1.13021,1.27604 -1.89583,2.1875 -2.3698,2.66146 -4.5573,5.46876 -2.1875,2.77083 -2.95312,3.60937 -0.76563,0.83854 -1.45834,0.83854 -2.84375,0 -2.84375,-7 0,-2.29687 0.69271,-5.06771 0.69271,-2.77083 3.71875,-7.32813 6.38021,-9.55209 10.90105,-15.60417 4.55729,-6.08855 7.54688,-9.18751 2.98958,-3.13541 4.01042,-3.0625 1.27604,0.10938 2.04166,0.51042 0.80209,0.40104 0.80209,0.91146 0,0.91146 -1.27605,3.02604 -1.23958,2.07813 -4.30208,6.52605 -3.31771,4.70312 -4.70313,6.63542 -1.38542,1.89583 -4.15625,5.43229 -2.73438,3.5 -5.03125,6.27084 -2.26042,2.73437 -5.17709,5.94271 v 4.375 q 4.88542,-5.43229 8.45834,-8.89584 3.57292,-3.46354 6.05208,-5.21354 2.47917,-1.78646 3.64584,-1.78646 1.09375,0 2.04167,1.3125 0.94791,1.27604 0.94791,2.11458 0,0.36459 -0.36458,0.91146 -2.625,3.13542 -4.19271,5.21355 -1.53125,2.04166 -2.36979,3.68229 -0.83854,1.60417 -0.83854,2.77083 0,1.71355 1.64062,1.71355 1.75,0 7.76563,-4.70313 z m 5.83334,1.3125 v 0.91146 q 0,2.15104 1.05729,3.35417 1.05729,1.20312 2.77083,1.20312 1.78646,0 3.6823,-0.83854 1.93229,-0.83854 3.82812,-2.22396 1.89584,-1.38542 4.63022,-3.71875 v 2.22396 q -4.1198,4.95833 -7.72918,7.61979 -3.60937,2.62501 -7.32812,2.62501 -3.2448,0 -5.14063,-2.51563 -1.89584,-2.51563 -1.89584,-6.89063 0,-3.82813 1.78646,-6.92709 1.78646,-3.13541 5.83334,-6.59896 2.77083,-2.36979 5.50521,-3.57292 2.73438,-1.20312 4.88542,-1.20312 1.71354,0 2.69792,0.80208 1.02083,0.76563 1.02083,2.33334 0,2.29687 -1.71354,4.59375 -1.71354,2.26042 -5.25,4.52083 -3.5,2.22396 -8.64063,4.30209 z m 0.36458,-2.36979 q 3.28125,-1.27604 5.61459,-3.17188 2.33333,-1.89583 3.42708,-3.60938 1.13021,-1.75 1.13021,-2.55208 0,-0.83854 -0.76562,-0.83854 -0.65625,0 -2.15105,0.83854 -1.45833,0.83854 -2.98958,2.1875 -1.49479,1.34896 -2.69792,3.17188 -1.20313,1.82291 -1.56771,3.97396 z m 15.45834,2.07812 v -0.875 q 9.40626,-9.91667 12.94272,-13.89063 0.80208,-4.48438 3.86458,-4.48438 0.76563,0 1.64063,0.4375 l 0.21875,0.69271 q -0.14584,0.4375 -0.14584,1.23959 0,0.69271 0.51042,2.58854 0.54688,1.85938 0.83854,3.13542 0.29167,1.27604 0.29167,2.88021 0,2.40625 -1.09375,4.63021 -1.09375,2.1875 -3.17188,4.22917 -2.07812,2.00521 -5.35938,4.11979 1.31251,0.21875 2.07813,0.21875 1.49479,0 3.20834,-0.72917 1.75,-0.76562 3.53646,-2.00521 1.82291,-1.27604 4.22916,-3.28125 v 2.44271 q -4.66666,4.5573 -8.34896,6.92709 -3.68229,2.33333 -6.34375,2.33333 -3.42709,0 -6.34375,-2.91666 -1.71355,-1.75001 -2.15105,-3.35417 -0.40104,-1.60417 -0.40104,-4.33855 z m 13.59897,-5.57812 -0.65625,-5.32292 q -2.26042,2.55208 -9.66147,9.80729 2.1875,0.47396 2.98959,1.27605 0.80208,0.80208 2.26042,3.09895 2.47916,-1.02083 3.79166,-2.77083 1.34896,-1.78646 1.34896,-4.84896 0,-0.36458 -0.0365,-0.65625 0,-0.29167 -0.0365,-0.58333 z m 9.69791,5.57812 v -0.875 q 9.40626,-9.91667 12.94272,-13.89063 0.80208,-4.48438 3.86458,-4.48438 0.76563,0 1.64063,0.4375 l 0.21875,0.69271 q -0.14583,0.4375 -0.14583,1.23959 0,0.69271 0.51041,2.58854 0.54688,1.85938 0.83855,3.13542 0.29166,1.27604 0.29166,2.88021 0,2.40625 -1.09375,4.63021 -1.09375,2.1875 -3.17187,4.22917 -2.07813,2.00521 -5.35938,4.11979 1.3125,0.21875 2.07812,0.21875 1.4948,0 3.20834,-0.72917 1.75,-0.76562 3.53646,-2.00521 1.82292,-1.27604 4.22917,-3.28125 v 2.44271 q -4.66667,4.5573 -8.34897,6.92709 -3.68229,2.33333 -6.34375,2.33333 -3.42708,0 -6.34375,-2.91666 -1.71354,-1.75001 -2.15104,-3.35417 -0.40105,-1.60417 -0.40105,-4.33855 z m 13.59897,-5.57812 -0.65625,-5.32292 q -2.26042,2.55208 -9.66146,9.80729 2.1875,0.47396 2.98958,1.27605 0.80208,0.80208 2.26042,3.09895 2.47917,-1.02083 3.79167,-2.77083 1.34896,-1.78646 1.34896,-4.84896 0,-0.36458 -0.0365,-0.65625 0,-0.29167 -0.0365,-0.58333 z"
         id="text458"
         style="font-style:italic;font-size:74.6667px;font-family:'Brush Script MT';-inkscape-font-specification:'Brush Script MT Italic';white-space:pre;fill:#8a0c3a;fill-rule:evenodd;stroke-width:3.77953"
         transform="matrix(0.26458333,0,0,0.26458333,-26.22365,-1.836723)"
         aria-label="Chess" />
    </g>
    <path
       style="fill:#705548;stroke-width:0.264583;stroke:#000000;fill-opacity:1"
       d="M 89.511435,29.533736 110.29665,9.3360543 109.03923,7.1487265 87.387236,28.078207 Z"
       id="path7"
       transform="translate(15.185696,119.30403)" />
  </g>
</svg>
